<svg width="22" height="22" viewBox="0 0 22 22" fill="none" xmlns="http://www.w3.org/2000/svg">
<path fill-rule="evenodd" clip-rule="evenodd" d="M11 2.52075C6.31971 2.52075 2.52084 6.31961 2.52084 10.9999C2.52084 15.6802 6.31971 19.4791 11 19.4791C15.6803 19.4791 19.4792 15.6802 19.4792 10.9999C19.4792 6.31961 15.6803 2.52075 11 2.52075ZM1.14584 10.9999C1.14584 5.56022 5.56031 1.14575 11 1.14575C16.4397 1.14575 20.8542 5.56022 20.8542 10.9999C20.8542 16.4396 16.4397 20.8541 11 20.8541C5.56031 20.8541 1.14584 16.4396 1.14584 10.9999Z" fill="#F1F1F1"/>
<path fill-rule="evenodd" clip-rule="evenodd" d="M10.6609 6.19653C11.0406 6.19653 11.3484 6.50434 11.3484 6.88403V10.6424C11.3484 10.7831 11.4021 10.9871 11.5216 11.1967C11.6411 11.4063 11.7893 11.5562 11.9097 11.6276L11.9115 11.6287L11.9115 11.6287L14.7532 13.3245C15.0792 13.5191 15.1858 13.9411 14.9912 14.2672C14.7966 14.5932 14.3746 14.6998 14.0485 14.5052L11.2087 12.8105C11.2084 12.8103 11.2081 12.8101 11.2077 12.8099C10.8336 12.5879 10.5329 12.2386 10.3272 11.8778C10.1213 11.5168 9.97336 11.0791 9.97336 10.6424V6.88403C9.97336 6.50434 10.2812 6.19653 10.6609 6.19653Z" fill="#F1F1F1"/>
</svg>
