<svg width="18" height="18" viewBox="0 0 18 18" fill="none" xmlns="http://www.w3.org/2000/svg">
<path fill-rule="evenodd" clip-rule="evenodd" d="M8.16666 2.33341C4.94499 2.33341 2.33332 4.94509 2.33332 8.16675C2.33332 11.3884 4.94499 14.0001 8.16666 14.0001C11.3883 14.0001 14 11.3884 14 8.16675C14 4.94509 11.3883 2.33341 8.16666 2.33341ZM0.666656 8.16675C0.666656 4.02461 4.02452 0.666748 8.16666 0.666748C12.3088 0.666748 15.6667 4.02461 15.6667 8.16675C15.6667 12.3089 12.3088 15.6667 8.16666 15.6667C4.02452 15.6667 0.666656 12.3089 0.666656 8.16675Z" fill="black"/>
<path fill-rule="evenodd" clip-rule="evenodd" d="M12.2858 12.2858C12.6112 11.9604 13.1388 11.9604 13.4643 12.2858L17.0893 15.9108C17.4147 16.2363 17.4147 16.7639 17.0893 17.0893C16.7638 17.4148 16.2362 17.4148 15.9108 17.0893L12.2858 13.4643C11.9603 13.1389 11.9603 12.6113 12.2858 12.2858Z" fill="black"/>
</svg>
